<mxfile host="65bd71144e">
    <diagram name="Сторінка-1" id="tAHwZpAvS_URavuUhmz7">
        <mxGraphModel dx="740" dy="331" grid="1" gridSize="10" guides="1" tooltips="1" connect="1" arrows="1" fold="1" page="1" pageScale="1" pageWidth="827" pageHeight="1169" math="0" shadow="0">
            <root>
                <mxCell id="0"/>
                <mxCell id="1" parent="0"/>
                <mxCell id="jVob-KINjvAB-Oeq5rvu-33" value="" style="rounded=0;whiteSpace=wrap;html=1;fillColor=#6d8764;strokeColor=#3A5431;fontColor=#ffffff;" parent="1" vertex="1">
                    <mxGeometry x="76" y="30" width="654" height="670" as="geometry"/>
                </mxCell>
                <mxCell id="jVob-KINjvAB-Oeq5rvu-16" value="" style="rounded=0;whiteSpace=wrap;html=1;fillColor=#0050ef;strokeColor=#001DBC;fontColor=#ffffff;" parent="1" vertex="1">
                    <mxGeometry x="120" y="190" width="566" height="470" as="geometry"/>
                </mxCell>
                <mxCell id="jVob-KINjvAB-Oeq5rvu-17" value="" style="rounded=0;whiteSpace=wrap;html=1;fillColor=#60a917;fontColor=#ffffff;strokeColor=#2D7600;" parent="1" vertex="1">
                    <mxGeometry x="209" y="228" width="380" height="152" as="geometry"/>
                </mxCell>
                <mxCell id="jVob-KINjvAB-Oeq5rvu-18" value="" style="rounded=0;whiteSpace=wrap;html=1;fillColor=#d80073;fontColor=#ffffff;strokeColor=#A50040;" parent="1" vertex="1">
                    <mxGeometry x="209" y="456" width="380" height="152" as="geometry"/>
                </mxCell>
                <mxCell id="jVob-KINjvAB-Oeq5rvu-38" style="edgeStyle=orthogonalEdgeStyle;rounded=0;orthogonalLoop=1;jettySize=auto;html=1;" parent="1" source="jVob-KINjvAB-Oeq5rvu-10" target="jVob-KINjvAB-Oeq5rvu-11" edge="1">
                    <mxGeometry relative="1" as="geometry"/>
                </mxCell>
                <mxCell id="jVob-KINjvAB-Oeq5rvu-10" value="" style="image;aspect=fixed;html=1;points=[];align=center;fontSize=12;image=img/lib/azure2/compute/Virtual_Machine.svg;" parent="1" vertex="1">
                    <mxGeometry x="368.5" y="272" width="69" height="64" as="geometry"/>
                </mxCell>
                <mxCell id="jVob-KINjvAB-Oeq5rvu-11" value="" style="image;aspect=fixed;html=1;points=[];align=center;fontSize=12;image=img/lib/azure2/compute/Virtual_Machine.svg;" parent="1" vertex="1">
                    <mxGeometry x="368.5" y="500" width="69" height="64" as="geometry"/>
                </mxCell>
                <mxCell id="jVob-KINjvAB-Oeq5rvu-12" value="" style="image;aspect=fixed;html=1;points=[];align=center;fontSize=12;image=img/lib/azure2/networking/Virtual_Networks.svg;" parent="1" vertex="1">
                    <mxGeometry x="129" y="200" width="67" height="40" as="geometry"/>
                </mxCell>
                <mxCell id="jVob-KINjvAB-Oeq5rvu-13" value="" style="image;aspect=fixed;html=1;points=[];align=center;fontSize=12;image=img/lib/azure2/networking/Network_Security_Groups.svg;" parent="1" vertex="1">
                    <mxGeometry x="549" y="210" width="56.00000000000001" height="68" as="geometry"/>
                </mxCell>
                <mxCell id="jVob-KINjvAB-Oeq5rvu-14" value="" style="image;aspect=fixed;html=1;points=[];align=center;fontSize=12;image=img/lib/azure2/networking/Network_Security_Groups.svg;" parent="1" vertex="1">
                    <mxGeometry x="549" y="440" width="56.00000000000001" height="68" as="geometry"/>
                </mxCell>
                <mxCell id="jVob-KINjvAB-Oeq5rvu-19" value="&lt;font style=&quot;font-size: 18px;&quot;&gt;Public subnet&lt;/font&gt;" style="text;html=1;align=center;verticalAlign=middle;whiteSpace=wrap;rounded=0;" parent="1" vertex="1">
                    <mxGeometry x="209" y="350" width="130" height="30" as="geometry"/>
                </mxCell>
                <mxCell id="jVob-KINjvAB-Oeq5rvu-20" value="Private Subnet" style="text;html=1;align=center;verticalAlign=middle;whiteSpace=wrap;rounded=0;fontSize=18;" parent="1" vertex="1">
                    <mxGeometry x="209" y="578" width="130" height="30" as="geometry"/>
                </mxCell>
                <mxCell id="jVob-KINjvAB-Oeq5rvu-21" value="&lt;font style=&quot;font-size: 18px;&quot;&gt;VNet&lt;/font&gt;" style="text;html=1;align=center;verticalAlign=middle;whiteSpace=wrap;rounded=0;" parent="1" vertex="1">
                    <mxGeometry x="120" y="240" width="90" height="30" as="geometry"/>
                </mxCell>
                <mxCell id="jVob-KINjvAB-Oeq5rvu-22" value="&lt;font style=&quot;font-size: 18px;&quot;&gt;22, 8080&lt;/font&gt;" style="text;html=1;align=center;verticalAlign=middle;whiteSpace=wrap;rounded=0;" parent="1" vertex="1">
                    <mxGeometry x="606" y="228" width="80" height="30" as="geometry"/>
                </mxCell>
                <mxCell id="jVob-KINjvAB-Oeq5rvu-23" value="&lt;font style=&quot;font-size: 18px;&quot;&gt;22, 5432&lt;/font&gt;" style="text;html=1;align=center;verticalAlign=middle;whiteSpace=wrap;rounded=0;" parent="1" vertex="1">
                    <mxGeometry x="606" y="456" width="80" height="30" as="geometry"/>
                </mxCell>
                <mxCell id="jVob-KINjvAB-Oeq5rvu-24" value="&lt;font style=&quot;font-size: 16px;&quot;&gt;WEB-VM&lt;/font&gt;" style="text;html=1;align=center;verticalAlign=middle;whiteSpace=wrap;rounded=0;" parent="1" vertex="1">
                    <mxGeometry x="437.5" y="270" width="80" height="30" as="geometry"/>
                </mxCell>
                <mxCell id="jVob-KINjvAB-Oeq5rvu-25" value="&lt;font style=&quot;font-size: 16px;&quot;&gt;DATA-VM&lt;/font&gt;" style="text;html=1;align=center;verticalAlign=middle;whiteSpace=wrap;rounded=0;" parent="1" vertex="1">
                    <mxGeometry x="437.5" y="500" width="80" height="30" as="geometry"/>
                </mxCell>
                <mxCell id="jVob-KINjvAB-Oeq5rvu-27" value="&lt;font style=&quot;font-size: 14px;&quot;&gt;Flask python app&lt;/font&gt;" style="text;html=1;align=center;verticalAlign=middle;whiteSpace=wrap;rounded=0;" parent="1" vertex="1">
                    <mxGeometry x="440" y="300" width="110" height="30" as="geometry"/>
                </mxCell>
                <mxCell id="jVob-KINjvAB-Oeq5rvu-28" value="&lt;font style=&quot;font-size: 14px;&quot;&gt;PostgreSQL&lt;/font&gt;" style="text;html=1;align=center;verticalAlign=middle;whiteSpace=wrap;rounded=0;" parent="1" vertex="1">
                    <mxGeometry x="430" y="530" width="110" height="30" as="geometry"/>
                </mxCell>
                <mxCell id="jVob-KINjvAB-Oeq5rvu-29" value="" style="image;aspect=fixed;html=1;points=[];align=center;fontSize=12;image=img/lib/azure2/preview/Static_Apps.svg;" parent="1" vertex="1">
                    <mxGeometry x="350" y="306" width="37.5" height="30" as="geometry"/>
                </mxCell>
                <mxCell id="jVob-KINjvAB-Oeq5rvu-30" value="" style="image;aspect=fixed;html=1;points=[];align=center;fontSize=12;image=img/lib/azure2/preview/Time_Series_Data_Sets.svg;" parent="1" vertex="1">
                    <mxGeometry x="350" y="520" width="33" height="44" as="geometry"/>
                </mxCell>
                <mxCell id="jVob-KINjvAB-Oeq5rvu-35" style="edgeStyle=orthogonalEdgeStyle;rounded=0;orthogonalLoop=1;jettySize=auto;html=1;" parent="1" source="jVob-KINjvAB-Oeq5rvu-31" target="jVob-KINjvAB-Oeq5rvu-10" edge="1">
                    <mxGeometry relative="1" as="geometry"/>
                </mxCell>
                <mxCell id="jVob-KINjvAB-Oeq5rvu-31" value="" style="image;aspect=fixed;html=1;points=[];align=center;fontSize=12;image=img/lib/azure2/identity/Users.svg;" parent="1" vertex="1">
                    <mxGeometry x="371" y="80" width="64" height="70" as="geometry"/>
                </mxCell>
                <mxCell id="jVob-KINjvAB-Oeq5rvu-32" value="&lt;font style=&quot;font-size: 18px;&quot;&gt;User&lt;/font&gt;" style="text;html=1;align=center;verticalAlign=middle;whiteSpace=wrap;rounded=0;" parent="1" vertex="1">
                    <mxGeometry x="371" y="50" width="60" height="30" as="geometry"/>
                </mxCell>
            </root>
        </mxGraphModel>
    </diagram>
</mxfile>